<?xml version="1.0" encoding="iso-8859-1"?>
<!-- Generator: Adobe Illustrator 19.0.0, SVG Export Plug-In . SVG Version: 6.00 Build 0)  -->
<svg version="1.1" id="Layer_1" xmlns="http://www.w3.org/2000/svg" xmlns:xlink="http://www.w3.org/1999/xlink" x="0px" y="0px"
	 viewBox="0 0 511.984 511.984" style="enable-background:new 0 0 511.984 511.984;" xml:space="preserve">
<path style="fill:#434A54;" d="M255.995,127.996c-5.906,0-10.671-4.773-10.671-10.664c0-52.076,14.875-85.653,45.49-102.653
	C317.236,0,351.172,0,384,0c5.891,0,10.656,4.772,10.656,10.663S389.89,21.335,384,21.335c-31.499,0-61.248,0-82.826,11.984
	c-10.891,6.054-18.905,14.835-24.515,26.858c-6.633,14.218-10.007,33.444-10.007,57.154
	C266.652,123.222,261.887,127.996,255.995,127.996z"/>
<path style="fill:#656D78;" d="M255.995,490.641c-5.906,0-10.671-4.766-10.671-10.656V117.332c0-44.233-10.968-70.928-34.515-84.013
	c-21.578-11.984-51.327-11.984-82.81-11.984c-5.906,0-10.671-4.781-10.671-10.672S122.093,0,127.999,0
	c32.812,0,66.748,0,93.169,14.679c30.609,17,45.484,50.577,45.484,102.653v362.653C266.652,485.876,261.887,490.641,255.995,490.641
	z"/>
<path style="fill:#AAB2BC;" d="M277.331,405.332h-42.678c-5.891,0-10.656,4.766-10.656,10.655v85.341
	c0,5.875,4.766,10.656,10.656,10.656h42.678c5.891,0,10.671-4.781,10.671-10.656v-85.341
	C288.002,410.097,283.221,405.332,277.331,405.332z"/>
<g>
	<path style="fill:#FFCE54;" d="M127.999,0H64.001c-5.906,0-10.672,4.772-10.672,10.663v31.999c0,5.891,4.766,10.672,10.672,10.672
		h63.998c5.891,0,10.656-4.781,10.656-10.672V10.663C138.655,4.772,133.89,0,127.999,0z"/>
	<path style="fill:#FFCE54;" d="M447.998,0H384c-5.906,0-10.672,4.772-10.672,10.663v31.999c0,5.891,4.766,10.672,10.672,10.672
		h63.998c5.891,0,10.656-4.781,10.656-10.672V10.663C458.654,4.772,453.888,0,447.998,0z"/>
</g>
<path style="fill:#434A54;" d="M320.002,511.984H191.997c-5.906,0-10.671-4.781-10.671-10.656c0-5.906,4.765-10.687,10.671-10.687
	h128.005c5.891,0,10.656,4.78,10.656,10.687C330.658,507.203,325.892,511.984,320.002,511.984z"/>
<g>
	<path style="fill:#F6BB42;" d="M479.966,500.515L447.967,73.864c-0.422-5.562-5.062-9.866-10.641-9.866h-42.67
		c-5.578,0-10.219,4.305-10.641,9.866l-31.999,426.651c-0.219,2.969,0.812,5.875,2.827,8.062c2.016,2.172,4.844,3.406,7.812,3.406
		h106.67c2.968,0,5.796-1.234,7.812-3.406C479.153,506.39,480.184,503.484,479.966,500.515z"/>
	<path style="fill:#F6BB42;" d="M159.967,500.515L127.968,73.864c-0.422-5.562-5.062-9.866-10.64-9.866H74.657
		c-5.578,0-10.218,4.305-10.64,9.866L32.018,500.515c-0.219,2.969,0.812,5.875,2.828,8.062c2.016,2.172,4.844,3.406,7.812,3.406
		h106.669c2.968,0,5.796-1.234,7.812-3.406C159.155,506.39,160.186,503.484,159.967,500.515z"/>
</g>
<g>
	<path style="fill:#CCD1D9;" d="M127.999,0H64.001c-5.906,0-10.672,4.772-10.672,10.663v21.336h85.326V10.663
		C138.655,4.772,133.89,0,127.999,0z"/>
	<path style="fill:#CCD1D9;" d="M447.998,0H384c-5.906,0-10.672,4.772-10.672,10.663v21.336h85.326V10.663
		C458.654,4.772,453.888,0,447.998,0z"/>
</g>
<g>
</g>
<g>
</g>
<g>
</g>
<g>
</g>
<g>
</g>
<g>
</g>
<g>
</g>
<g>
</g>
<g>
</g>
<g>
</g>
<g>
</g>
<g>
</g>
<g>
</g>
<g>
</g>
<g>
</g>
</svg>
