<?xml version="1.0" encoding="iso-8859-1"?>
<!-- Generator: Adobe Illustrator 19.0.0, SVG Export Plug-In . SVG Version: 6.00 Build 0)  -->
<svg version="1.1" id="Layer_1" xmlns="http://www.w3.org/2000/svg" xmlns:xlink="http://www.w3.org/1999/xlink" x="0px" y="0px"
	 viewBox="0 0 511.999 511.999" style="enable-background:new 0 0 511.999 511.999;" xml:space="preserve">
<path style="fill:#FCF6D6;" d="M504.389,280.479v120.029c0,0-54.628,91.3-248.386,91.3c-58.909,0-105.248-8.897-141.119-21.131
	C35.849,443.702,7.607,400.507,7.607,400.507V280.479c0-49.606,27.532-94.546,72.086-127.18
	c45.001-32.979,107.378-53.39,176.31-53.39C393.186,99.909,504.389,180.759,504.389,280.479z"/>
<path style="fill:#EAE3C5;" d="M113.139,467.501c0.659,1.085,1.248,2.14,1.745,3.175C35.849,443.702,7.607,400.507,7.607,400.507
	V280.479c0-49.606,27.532-94.546,72.086-127.18l35.404,8.623l-16.485,142.58C98.613,304.501,71.639,399.26,113.139,467.501z"/>
<path style="fill:#666666;" d="M466.739,184.858c6.675,11.595,10.266,23.951,10.266,36.763c0,67.217-98.948,121.713-221.006,121.713
	S34.993,288.838,34.993,221.621c0-12.812,3.591-25.168,10.266-36.763c43.895-51.016,121.865-84.949,210.74-84.949
	c88.855,0,166.804,33.923,210.719,84.919C466.718,184.838,466.729,184.848,466.739,184.858z"/>
<g>
	<polyline style="fill:#FCF6D6;" points="127.169,126.061 127.169,20.194 62.245,20.194 62.245,167.491 	"/>
	<polyline style="fill:#FCF6D6;" points="449.761,167.491 449.761,20.194 384.837,20.194 384.837,126.061 	"/>
</g>
<path style="fill:#62D12F;" d="M369.519,173.882c36.804,27.339,63.342,72.33,79.664,106.912
	c-37.757,37.301-110.107,62.54-193.17,62.54c-83.377,0-155.97-25.432-193.606-62.976c16.322-34.521,42.789-79.248,79.451-106.476
	L369.519,173.882L369.519,173.882z"/>
<path style="fill:#EDB529;" d="M267.731,325.079l53.097-33.619l44.87-28.41l-18.73-11.859c-50.359-31.886-132.007-31.886-182.366,0
	l-18.73,11.859l44.87,28.41l53.097,33.619"/>
<polyline style="fill:#62D12F;" points="267.731,325.079 320.828,291.46 255.785,250.278 190.743,291.46 243.84,325.079 "/>
<ellipse style="fill:#EA5149;" cx="255.781" cy="332.644" rx="16.891" ry="10.695"/>
<path d="M457.369,164.115V20.194c0-4.202-3.406-7.608-7.608-7.608h-64.924c-4.202,0-7.608,3.406-7.608,7.608v94.408
	C340.401,100.044,299,92.303,256,92.303c-21.69,0-43.236,1.992-64.044,5.921c-4.084,0.771-7.029,4.625-6.37,8.728
	c0.683,4.249,4.729,7.069,8.931,6.273c19.96-3.787,40.646-5.706,61.482-5.706c82.551,0,155.52,30.003,198.917,75.619
	c4.353,4.575,7.875,9.901,10.151,15.792c2.875,7.443,4.329,15.04,4.329,22.694c0,15.974-6.295,31.535-18.238,45.871
	c-27.904-55.591-57.073-84.837-77.114-99.723c-1.314-0.976-2.9-1.5-4.537-1.5H141.849c-1.636,0-3.222,0.524-4.536,1.499
	c-19.981,14.839-49.06,43.963-76.874,99.251c-11.687-14.204-17.837-29.599-17.837-45.397c0-7.67,1.461-15.284,4.349-22.743
	c2.202-5.689,5.533-10.888,9.723-15.321c0.018-0.019,0.036-0.038,0.054-0.057c26.93-28.463,64.491-50.342,108.618-63.269
	c4.032-1.182,6.343-5.408,5.162-9.44c-1.182-4.033-5.411-6.345-9.44-5.162c-9.03,2.646-17.8,5.654-26.29,9.001v-94.44
	c0-4.202-3.406-7.608-7.608-7.608H62.246c-4.202,0-7.608,3.406-7.608,7.608v143.95c-3.094,2.895-6.087,5.861-8.963,8.901
	c-2.096,2.216-4.115,4.46-6.071,6.729c-0.038,0.042-0.073,0.085-0.11,0.128C13.626,209.946,0,244.542,0,280.482v120.023
	c0,1.479,0.431,2.927,1.241,4.164c0.649,0.993,16.35,24.575,55.928,48.031c65.144,38.609,144.082,46.713,198.83,46.713
	c44.852,0,86.067-4.885,122.5-14.519c29.336-7.757,55.673-18.599,78.283-32.224c39.056-23.535,53.54-47.261,54.138-48.26
	c0.706-1.181,1.079-2.531,1.079-3.907V280.482C512,237.656,492.795,197.111,457.369,164.115z M392.445,121.122V27.802h49.708v123.4
	c-1.979-1.537-3.983-3.061-6.039-4.556C422.695,136.891,408.052,128.36,392.445,121.122z M144.399,181.488h222.558
	c33.138,25.481,57.608,66.083,72.981,97.637c-8.663,7.834-19.147,15.185-31.334,21.898c-34.934,19.239-79.89,31.039-128.519,33.975
	c0.127-0.77,0.2-1.555,0.2-2.356c0-2.019-0.422-3.948-1.195-5.751l45.808-29.003c0.003-0.002,0.006-0.005,0.01-0.007l44.861-28.403
	c2.202-1.395,3.537-3.82,3.537-6.427s-1.335-5.033-3.538-6.427l-18.73-11.859c-25.557-16.182-59.385-25.094-95.252-25.094
	s-69.695,8.912-95.253,25.094l-18.73,11.859c-2.202,1.395-3.538,3.82-3.538,6.427s1.335,5.033,3.538,6.427l44.869,28.409
	l0.001,0.001l45.807,29.003c-0.773,1.803-1.195,3.732-1.195,5.751c0,0.791,0.071,1.567,0.196,2.329
	c-48.463-2.98-93.254-14.767-128.084-33.948c-12.396-6.827-23.026-14.317-31.774-22.3
	C86.947,247.319,111.348,206.897,144.399,181.488z M255.703,335.726c-5.239-0.021-8.444-2.063-9.127-3.085
	c0.686-1.028,3.92-3.087,9.208-3.087c3.616,0,6.271,0.964,7.808,1.901c0.02,0.013,0.042,0.025,0.063,0.039
	c0.675,0.42,1.127,0.832,1.337,1.146c-0.684,1.024-3.902,3.073-9.161,3.086C255.788,335.727,255.745,335.726,255.703,335.726z
	 M244.343,316.392l-39.378-24.932l50.82-32.177l50.819,32.177l-39.379,24.933c-3.398-1.313-7.283-2.054-11.443-2.054
	C251.625,314.339,247.74,315.079,244.343,316.392z M320.827,282.455l-60.972-38.606c-2.483-1.573-5.654-1.574-8.14,0l-60.972,38.606
	l-30.648-19.405l8.577-5.431c48.035-30.412,126.19-30.412,174.226,0l8.577,5.431L320.827,282.455z M69.853,27.802h49.708v93.329
	c-18.216,8.418-34.901,18.496-49.708,30.027V27.802z M447.883,440.265c-60.992,36.31-138.012,43.931-191.883,43.931
	c-95.093,0-155.871-23.939-190.112-44.021c-31.002-18.182-46.425-36.561-50.671-42.134V365.64
	c8.967,8.874,22.598,20.368,41.952,31.838c35.957,21.31,99.64,46.713,198.83,46.713c49.901,0,95.17-6.032,134.55-17.928
	c4.022-1.215,6.298-5.461,5.083-9.484c-1.215-4.022-5.462-6.298-9.484-5.083c-37.951,11.465-81.74,17.278-130.15,17.278
	c-95.094,0-155.871-23.939-190.112-44.021c-27.489-16.122-44.386-33.602-50.67-42.079v-62.392c0-18.746,4.187-37.138,12.3-54.61
	c1.871,33.788,26.032,65.07,68.538,88.479c42.768,23.553,99.437,36.542,159.605,36.592c0.042,0,0.083,0.002,0.126,0.002
	c0.019,0,0.039-0.001,0.058-0.001c0.053,0,0.104,0.001,0.157,0.001c60.293,0,117.096-12.996,159.944-36.594
	c42.502-23.407,66.662-54.684,68.538-88.468c7.973,17.171,12.303,35.528,12.303,54.599v62.488
	c-4.99,7.035-27.634,35.593-80.003,57.718c-3.87,1.635-5.683,6.099-4.048,9.97c1.227,2.904,4.046,4.649,7.012,4.649
	c0.988,0,1.991-0.194,2.958-0.602c37.581-15.877,60.918-34.833,74.08-48.269v31.761
	C492.918,403.658,478.469,422.057,447.883,440.265z"/>
<path d="M412.663,41.628c-2.591-6.15-11.721-6.131-14.126,0.177c-1.122,2.942-0.302,6.322,2.044,8.42
	c2.58,2.307,6.56,2.548,9.396,0.559C412.91,48.725,413.954,44.938,412.663,41.628z"/>
<path d="M409.853,64.595c-2.834-1.912-6.721-1.629-9.272,0.636c-2.349,2.086-3.166,5.491-2.044,8.422
	c1.15,3.004,4.195,4.999,7.411,4.864c2.988-0.126,5.71-2.069,6.78-4.864C413.983,70.375,412.793,66.535,409.853,64.595z"/>
<path d="M412.663,94.379c-2.498-5.927-11.137-6.2-13.908-0.34c-1.403,2.966-0.695,6.613,1.714,8.836
	c2.449,2.26,6.209,2.66,9.072,0.943C412.775,101.881,414.018,97.852,412.663,94.379z"/>
<path d="M421.934,47.451c1.213,2.869,4.09,4.769,7.217,4.692c3.122-0.076,5.91-2.11,6.97-5.038c1.078-2.979,0.124-6.442-2.332-8.443
	c-2.58-2.102-6.273-2.277-9.044-0.442C421.735,40.213,420.605,44.122,421.934,47.451z"/>
<path d="M435.985,68.003c-2.471-6.185-11.532-6.055-14.044,0.003c-1.146,2.767-0.531,6.008,1.538,8.171
	c2.373,2.482,6.243,3.047,9.232,1.356C436.018,75.664,437.429,71.512,435.985,68.003z"/>
<path d="M435.985,94.379c-1.148-2.874-4.128-4.77-7.208-4.692c-3.099,0.078-5.943,2.117-6.974,5.044
	c-1.059,3.005-0.123,6.412,2.337,8.438c2.554,2.104,6.292,2.288,9.044,0.451C436.176,101.626,437.35,97.697,435.985,94.379z"/>
<path d="M87.261,38.22c-5.656-3.818-13.24,1.599-11.596,8.17c0.756,3.02,3.352,5.308,6.435,5.698
	c3.357,0.426,6.678-1.517,7.972-4.637C91.44,44.15,90.249,40.187,87.261,38.22z"/>
<path d="M87.261,64.595c-2.596-1.753-6.104-1.665-8.647,0.142c-2.731,1.94-3.864,5.594-2.73,8.743
	c1.04,2.886,3.773,4.907,6.841,5.036c3.329,0.14,6.425-1.99,7.507-5.132C91.339,70.169,90.109,66.47,87.261,64.595z"/>
<path d="M87.261,90.96c-2.682-1.811-6.352-1.633-8.897,0.337c-2.446,1.895-3.499,5.207-2.611,8.167
	c0.889,2.966,3.572,5.145,6.659,5.407c3.316,0.281,6.504-1.724,7.713-4.815C91.419,96.748,90.179,92.952,87.261,90.96z"/>
<path d="M106.373,52.148c3.301,0,6.331-2.229,7.278-5.396c0.937-3.137-0.256-6.579-2.934-8.455
	c-5.701-3.996-13.533,1.56-11.673,8.266C99.946,49.817,102.991,52.148,106.373,52.148z"/>
<path d="M113.403,68.003c-2.606-6.17-11.699-6.109-14.118,0.177c-2.507,6.512,4.74,12.804,10.835,9.355
	C113.458,75.645,114.787,71.54,113.403,68.003z"/>
<path d="M113.403,94.379c-2.563-6.07-11.529-6.16-14.05,0c-1.263,3.085-0.364,6.71,2.229,8.815c2.45,1.989,5.988,2.25,8.7,0.624
	C113.512,101.882,114.762,97.851,113.403,94.379z"/>
<g>
</g>
<g>
</g>
<g>
</g>
<g>
</g>
<g>
</g>
<g>
</g>
<g>
</g>
<g>
</g>
<g>
</g>
<g>
</g>
<g>
</g>
<g>
</g>
<g>
</g>
<g>
</g>
<g>
</g>
</svg>
